<svg width="121" height="41" viewBox="0 0 121 41" fill="none" xmlns="http://www.w3.org/2000/svg">
<path d="M110.803 0.203255H10.2026C9.83595 0.203255 9.47365 0.203255 9.10792 0.205255C8.80177 0.207255 8.49806 0.213065 8.18897 0.217955C7.51748 0.225857 6.84758 0.284931 6.18507 0.394665C5.52349 0.506788 4.88264 0.718171 4.28419 1.02166C3.68647 1.32773 3.14031 1.72542 2.66554 2.20033C2.18827 2.67389 1.79043 3.22127 1.48732 3.82141C1.18337 4.42036 0.972609 5.06219 0.862319 5.72474C0.75098 6.38644 0.691067 7.05578 0.683119 7.72674C0.673839 8.03334 0.672859 8.34095 0.667969 8.64759V31.7619C0.672859 32.0724 0.673839 32.3732 0.683119 32.6838C0.69107 33.3547 0.750982 34.024 0.862319 34.6857C0.972305 35.3486 1.18308 35.9908 1.48732 36.59C1.79029 37.1882 2.18819 37.7333 2.66554 38.2043C3.13851 38.6813 3.68502 39.0792 4.28419 39.383C4.88264 39.6873 5.52342 39.8999 6.18507 40.0138C6.84769 40.1226 7.51753 40.1817 8.18897 40.1906C8.49806 40.1974 8.80177 40.2013 9.10792 40.2013C9.47364 40.2033 9.83597 40.2033 10.2026 40.2033H110.803C111.162 40.2033 111.527 40.2033 111.887 40.2013C112.191 40.2013 112.504 40.1974 112.809 40.1906C113.479 40.1822 114.147 40.1231 114.809 40.0138C115.472 39.8991 116.116 39.6865 116.717 39.383C117.315 39.0791 117.861 38.6811 118.334 38.2043C118.81 37.7315 119.209 37.1867 119.516 36.59C119.818 35.9903 120.026 35.3482 120.135 34.6857C120.246 34.0239 120.308 33.3547 120.32 32.6838C120.324 32.3732 120.324 32.0724 120.324 31.7619C120.332 31.3986 120.332 31.0373 120.332 30.6681V9.73938C120.332 9.37317 120.332 9.00989 120.324 8.64759C120.324 8.34095 120.324 8.03334 120.32 7.7267C120.308 7.05568 120.246 6.38649 120.135 5.7247C120.026 5.06254 119.817 4.42076 119.516 3.82137C118.898 2.61845 117.92 1.63928 116.717 1.02157C116.115 0.718822 115.472 0.507495 114.809 0.394575C114.148 0.284358 113.479 0.225263 112.809 0.217815C112.504 0.212935 112.191 0.207075 111.887 0.205125C111.527 0.203125 111.162 0.203125 110.803 0.203125V0.203255Z" fill="#A6A6A6"/>
<path d="M9.11284 39.3281C8.80816 39.3281 8.51084 39.3242 8.20855 39.3174C7.58233 39.3093 6.95757 39.2547 6.33941 39.1543C5.763 39.055 5.20461 38.8704 4.68267 38.6064C4.16551 38.3447 3.69382 38.0014 3.28567 37.5898C2.87161 37.1831 2.52688 36.7114 2.26516 36.1933C2.00054 35.6719 1.81742 35.113 1.72216 34.5361C1.61928 33.9162 1.56362 33.2894 1.55566 32.6611C1.54932 32.4502 1.54102 31.748 1.54102 31.748V8.64746C1.54102 8.64746 1.54986 7.95605 1.55571 7.75292C1.56333 7.12561 1.61867 6.49978 1.72124 5.88086C1.81667 5.30238 1.99994 4.74187 2.2647 4.21875C2.52546 3.70107 2.86827 3.22899 3.27984 2.82081C3.69094 2.40875 4.16414 2.06373 4.68218 1.79833C5.20292 1.53522 5.76025 1.35186 6.3355 1.2544C6.95569 1.15296 7.58262 1.09812 8.21101 1.09034L9.11333 1.07812H111.882L112.795 1.09083C113.418 1.09822 114.039 1.15257 114.653 1.25341C115.234 1.3521 115.798 1.53674 116.324 1.80127C117.362 2.33611 118.207 3.18229 118.739 4.2212C119 4.7407 119.18 5.29663 119.274 5.87011C119.378 6.49412 119.436 7.12486 119.448 7.75733C119.451 8.04052 119.451 8.34472 119.451 8.64746C119.459 9.02246 119.459 9.37939 119.459 9.73925V30.6679C119.459 31.0312 119.459 31.3857 119.451 31.7431C119.451 32.0683 119.451 32.3662 119.447 32.6728C119.436 33.294 119.378 33.9135 119.276 34.5263C119.183 35.1074 119.001 35.6706 118.736 36.1963C118.473 36.7087 118.13 37.1764 117.721 37.582C117.312 37.9958 116.84 38.3411 116.321 38.6045C115.796 38.8705 115.234 39.0559 114.653 39.1543C114.035 39.2553 113.41 39.3098 112.784 39.3174C112.491 39.3242 112.185 39.3281 111.887 39.3281L110.803 39.3301L9.11284 39.3281Z" fill="black"/>
<path d="M25.4368 20.5044C25.4476 19.6698 25.6693 18.8514 26.0813 18.1254C26.4933 17.3995 27.0823 16.7895 27.7934 16.3524C27.3417 15.7072 26.7457 15.1763 26.0529 14.8017C25.3601 14.4272 24.5894 14.2193 23.8022 14.1947C22.123 14.0184 20.495 15.1995 19.6393 15.1995C18.7671 15.1995 17.4496 14.2122 16.0308 14.2414C15.1132 14.271 14.2188 14.5379 13.4349 15.0159C12.6511 15.494 12.0044 16.167 11.5579 16.9693C9.62392 20.3177 11.0665 25.2387 12.9191 27.9453C13.846 29.2707 14.9293 30.7511 16.3467 30.6986C17.7338 30.6411 18.2518 29.8141 19.9261 29.8141C21.5849 29.8141 22.0709 30.6986 23.5171 30.6653C25.0055 30.6411 25.9433 29.334 26.8377 27.9961C27.5036 27.0518 28.0161 26.008 28.3561 24.9036C27.4914 24.5379 26.7535 23.9257 26.2343 23.1434C25.7152 22.3611 25.4378 21.4433 25.4368 20.5044Z" fill="white"/>
<path d="M22.7052 12.4144C23.5167 11.4402 23.9165 10.1881 23.8197 8.92383C22.5799 9.05405 21.4346 9.64661 20.6121 10.5834C20.21 11.0411 19.902 11.5735 19.7057 12.1503C19.5095 12.7271 19.4288 13.3369 19.4684 13.9448C20.0885 13.9512 20.702 13.8168 21.2627 13.5517C21.8234 13.2866 22.3166 12.8978 22.7052 12.4144Z" fill="white"/>
<path d="M42.9702 27.3428H38.2368L37.1001 30.6992H35.0952L39.5786 18.2812H41.6616L46.145 30.6992H44.1059L42.9702 27.3428ZM38.727 25.794H42.479L40.6294 20.3467H40.5777L38.727 25.794Z" fill="white"/>
<path d="M55.8277 26.1726C55.8277 28.9861 54.3218 30.7937 52.0493 30.7937C51.4737 30.8238 50.9012 30.6912 50.3974 30.411C49.8936 30.1309 49.4789 29.7146 49.2007 29.2097H49.1577V33.694H47.2993V21.6452H49.0982V23.1511H49.1324C49.4233 22.6486 49.845 22.2344 50.3527 21.9526C50.8603 21.6707 51.4348 21.5318 52.0152 21.5505C54.313 21.5505 55.8277 23.3669 55.8277 26.1726ZM53.9175 26.1726C53.9175 24.3396 52.9702 23.1345 51.5249 23.1345C50.105 23.1345 49.1499 24.365 49.1499 26.1726C49.1499 27.9968 50.105 29.2185 51.5249 29.2185C52.9702 29.2185 53.9175 28.0222 53.9175 26.1726Z" fill="white"/>
<path d="M65.7925 26.1726C65.7925 28.986 64.2867 30.7937 62.0142 30.7937C61.4385 30.8238 60.866 30.6912 60.3622 30.411C59.8584 30.1309 59.4437 29.7145 59.1656 29.2097H59.1226V33.694H57.2642V21.6452H59.063V23.1511H59.0972C59.3881 22.6486 59.8098 22.2344 60.3175 21.9526C60.8251 21.6707 61.3997 21.5318 61.98 21.5505C64.2779 21.5505 65.7925 23.3669 65.7925 26.1726ZM63.8824 26.1726C63.8824 24.3396 62.9351 23.1345 61.4898 23.1345C60.0698 23.1345 59.1148 24.3649 59.1148 26.1726C59.1148 27.9968 60.0698 29.2185 61.4898 29.2185C62.9351 29.2185 63.8824 28.0222 63.8824 26.1726H63.8824Z" fill="white"/>
<path d="M72.3784 27.2393C72.5161 28.4708 73.7124 29.2793 75.3472 29.2793C76.9136 29.2793 78.0406 28.4707 78.0406 27.3604C78.0406 26.3965 77.3609 25.8194 75.7515 25.4238L74.1421 25.0361C71.8619 24.4854 70.8033 23.4189 70.8033 21.6885C70.8033 19.5459 72.6704 18.0742 75.3218 18.0742C77.9458 18.0742 79.7447 19.5459 79.8052 21.6885H77.9292C77.8169 20.4492 76.7925 19.7012 75.2954 19.7012C73.7983 19.7012 72.7739 20.458 72.7739 21.5596C72.7739 22.4375 73.4282 22.9541 75.0288 23.3496L76.397 23.6855C78.9448 24.2881 80.0034 25.3115 80.0034 27.1279C80.0034 29.4511 78.1528 30.9062 75.2095 30.9062C72.4556 30.9062 70.5962 29.4853 70.4761 27.2392L72.3784 27.2393Z" fill="white"/>
<path d="M84.0142 19.5029V21.6455H85.7358V23.1172H84.0142V28.1084C84.0142 28.8838 84.3589 29.2451 85.1157 29.2451C85.3201 29.2416 85.5242 29.2272 85.727 29.2021V30.665C85.3868 30.7286 85.0409 30.7574 84.6948 30.7509C82.8618 30.7509 82.147 30.0625 82.147 28.3066V23.1172H80.8306V21.6455H82.1469V19.5029H84.0142Z" fill="white"/>
<path d="M86.7329 26.1728C86.7329 23.3242 88.4106 21.5342 91.0269 21.5342C93.6519 21.5342 95.3218 23.3242 95.3218 26.1728C95.3218 29.0293 93.6606 30.8115 91.0269 30.8115C88.394 30.8115 86.7329 29.0293 86.7329 26.1728ZM93.4282 26.1728C93.4282 24.2187 92.5327 23.0654 91.0268 23.0654C89.521 23.0654 88.6265 24.2275 88.6265 26.1728C88.6265 28.1348 89.521 29.2793 91.0268 29.2793C92.5327 29.2793 93.4282 28.1348 93.4282 26.1728H93.4282Z" fill="white"/>
<path d="M96.854 21.6451H98.6265V23.1861H98.6695C98.7894 22.7049 99.0713 22.2795 99.4679 21.9816C99.8645 21.6838 100.352 21.5315 100.847 21.5504C101.061 21.5497 101.275 21.5729 101.484 21.6197V23.358C101.214 23.2754 100.932 23.2375 100.649 23.2457C100.379 23.2348 100.11 23.2824 99.86 23.3853C99.6101 23.4881 99.3855 23.6439 99.2015 23.8418C99.0175 24.0397 98.8786 24.275 98.7941 24.5317C98.7097 24.7884 98.6818 25.0603 98.7124 25.3287V30.6988H96.854L96.854 21.6451Z" fill="white"/>
<path d="M110.052 28.04C109.802 29.6836 108.202 30.8115 106.154 30.8115C103.52 30.8115 101.885 29.0469 101.885 26.2158C101.885 23.376 103.529 21.5342 106.076 21.5342C108.581 21.5342 110.156 23.2549 110.156 26V26.6367H103.761V26.749C103.732 27.0822 103.773 27.4179 103.884 27.7337C103.994 28.0496 104.17 28.3384 104.4 28.5809C104.631 28.8234 104.91 29.0142 105.22 29.1405C105.529 29.2668 105.863 29.3258 106.197 29.3135C106.636 29.3546 107.077 29.2529 107.453 29.0235C107.83 28.794 108.123 28.4491 108.288 28.04L110.052 28.04ZM103.77 25.3379H108.296C108.313 25.0383 108.268 24.7385 108.163 24.4573C108.058 24.1761 107.897 23.9195 107.688 23.7038C107.48 23.488 107.229 23.3177 106.951 23.2034C106.674 23.0892 106.376 23.0336 106.076 23.04C105.773 23.0382 105.473 23.0964 105.193 23.2111C104.913 23.3259 104.658 23.4949 104.444 23.7086C104.23 23.9222 104.06 24.1762 103.944 24.4558C103.828 24.7355 103.769 25.0353 103.77 25.3379V25.3379Z" fill="white"/>
<path d="M38.4941 8.93353C38.8838 8.90557 39.2747 8.96443 39.6388 9.10586C40.0029 9.2473 40.3311 9.46778 40.5997 9.7514C40.8683 10.035 41.0706 10.3747 41.192 10.746C41.3134 11.1173 41.3509 11.5109 41.3018 11.8984C41.3018 13.8046 40.2715 14.9004 38.4941 14.9004H36.3389V8.93353H38.4941ZM37.2656 14.0565H38.3906C38.669 14.0732 38.9476 14.0275 39.2062 13.9229C39.4647 13.8183 39.6967 13.6573 39.8852 13.4518C40.0737 13.2462 40.2139 13.0012 40.2958 12.7346C40.3777 12.468 40.399 12.1865 40.3584 11.9105C40.3961 11.6357 40.3725 11.3559 40.2894 11.0913C40.2063 10.8266 40.0657 10.5836 39.8776 10.3797C39.6896 10.1757 39.4587 10.0159 39.2016 9.91169C38.9445 9.80745 38.6676 9.76137 38.3906 9.77674H37.2656V14.0565Z" fill="white"/>
<path d="M42.3487 12.6469C42.3204 12.351 42.3542 12.0524 42.4481 11.7704C42.5419 11.4883 42.6936 11.229 42.8936 11.009C43.0935 10.789 43.3372 10.6132 43.6091 10.493C43.8809 10.3727 44.1749 10.3105 44.4722 10.3105C44.7695 10.3105 45.0635 10.3727 45.3353 10.493C45.6072 10.6132 45.8509 10.789 46.0508 11.009C46.2508 11.229 46.4025 11.4883 46.4964 11.7704C46.5902 12.0524 46.624 12.351 46.5957 12.6469C46.6246 12.9431 46.5911 13.2421 46.4975 13.5247C46.404 13.8072 46.2523 14.067 46.0523 14.2874C45.8523 14.5078 45.6084 14.684 45.3363 14.8045C45.0642 14.925 44.7698 14.9873 44.4722 14.9873C44.1746 14.9873 43.8802 14.925 43.6081 14.8045C43.336 14.684 43.0921 14.5078 42.8921 14.2874C42.6921 14.067 42.5405 13.8072 42.4469 13.5247C42.3533 13.2421 42.3198 12.9431 42.3487 12.6469ZM45.6817 12.6469C45.6817 11.6709 45.2432 11.1001 44.4737 11.1001C43.7012 11.1001 43.2667 11.6709 43.2667 12.6469C43.2667 13.6308 43.7012 14.1972 44.4737 14.1972C45.2432 14.1972 45.6817 13.6269 45.6817 12.6469H45.6817Z" fill="white"/>
<path d="M52.2412 14.9004H51.3193L50.3887 11.584H50.3184L49.3916 14.9004H48.4785L47.2373 10.3975H48.1387L48.9453 13.8335H49.0117L49.9375 10.3975H50.79L51.7158 13.8335H51.7861L52.5889 10.3975H53.4775L52.2412 14.9004Z" fill="white"/>
<path d="M54.5215 10.397H55.377V11.1123H55.4434C55.556 10.8554 55.746 10.6401 55.9869 10.4962C56.2278 10.3524 56.5075 10.2874 56.7871 10.3101C57.0062 10.2936 57.2262 10.3267 57.4308 10.4068C57.6354 10.4869 57.8194 10.612 57.969 10.7728C58.1187 10.9336 58.2303 11.1261 58.2955 11.3359C58.3607 11.5457 58.3779 11.7675 58.3457 11.9849V14.8999H57.457V12.2081C57.457 11.4844 57.1426 11.1246 56.4854 11.1246C56.3366 11.1176 56.1881 11.1429 56.05 11.1988C55.912 11.2546 55.7876 11.3396 55.6855 11.448C55.5834 11.5564 55.5059 11.6856 55.4584 11.8267C55.4108 11.9678 55.3944 12.1176 55.4102 12.2657V14.8999H54.5215L54.5215 10.397Z" fill="white"/>
<path d="M59.7617 8.63965H60.6504V14.9004H59.7617V8.63965Z" fill="white"/>
<path d="M61.8858 12.647C61.8575 12.3511 61.8913 12.0525 61.9852 11.7704C62.0791 11.4883 62.2308 11.229 62.4308 11.009C62.6308 10.789 62.8745 10.6132 63.1464 10.493C63.4182 10.3727 63.7122 10.3105 64.0095 10.3105C64.3068 10.3105 64.6008 10.3727 64.8727 10.493C65.1446 10.6132 65.3883 10.789 65.5883 11.009C65.7882 11.229 65.94 11.4883 66.0339 11.7704C66.1277 12.0525 66.1616 12.3511 66.1333 12.647C66.1621 12.9432 66.1286 13.2422 66.035 13.5248C65.9414 13.8073 65.7897 14.0671 65.5897 14.2875C65.3897 14.5079 65.1458 14.684 64.8736 14.8046C64.6015 14.9251 64.3072 14.9874 64.0095 14.9874C63.7119 14.9874 63.4176 14.9251 63.1454 14.8046C62.8733 14.684 62.6294 14.5079 62.4294 14.2875C62.2294 14.0671 62.0777 13.8073 61.984 13.5248C61.8904 13.2422 61.8569 12.9432 61.8858 12.647ZM65.2188 12.647C65.2188 11.6709 64.7803 11.1001 64.0108 11.1001C63.2383 11.1001 62.8038 11.6709 62.8038 12.647C62.8038 13.6309 63.2383 14.1973 64.0108 14.1973C64.7803 14.1973 65.2188 13.627 65.2188 12.647H65.2188Z" fill="white"/>
<path d="M67.0688 13.6269C67.0688 12.8164 67.6724 12.3491 68.7436 12.2827L69.9634 12.2124V11.8237C69.9634 11.3481 69.6489 11.0796 69.0415 11.0796C68.5454 11.0796 68.2017 11.2617 68.103 11.5801H67.2427C67.3335 10.8066 68.061 10.3105 69.0825 10.3105C70.2114 10.3105 70.8481 10.8725 70.8481 11.8237V14.9004H69.9927V14.2676H69.9224C69.7796 14.4946 69.5792 14.6796 69.3416 14.8038C69.104 14.928 68.8377 14.987 68.5698 14.9746C68.3808 14.9942 68.1897 14.9741 68.009 14.9154C67.8282 14.8567 67.6618 14.7607 67.5203 14.6338C67.3789 14.5068 67.2657 14.3516 67.1879 14.1782C67.1102 14.0048 67.0696 13.817 67.0688 13.6269ZM69.9634 13.2422V12.8657L68.8638 12.936C68.2436 12.9775 67.9624 13.1885 67.9624 13.5854C67.9624 13.9907 68.314 14.2265 68.7974 14.2265C68.939 14.2409 69.0821 14.2266 69.2181 14.1845C69.3541 14.1424 69.4803 14.0734 69.5891 13.9815C69.6979 13.8897 69.7871 13.7769 69.8514 13.6499C69.9157 13.5229 69.9538 13.3842 69.9634 13.2422Z" fill="white"/>
<path d="M72.0161 12.647C72.0161 11.2241 72.7476 10.3228 73.8853 10.3228C74.1667 10.3098 74.446 10.3772 74.6905 10.5171C74.935 10.657 75.1347 10.8636 75.2661 11.1128H75.3325V8.63965H76.2212V14.9004H75.3696V14.189H75.2993C75.1577 14.4364 74.9511 14.6405 74.7019 14.779C74.4526 14.9174 74.1702 14.9851 73.8853 14.9746C72.7398 14.9746 72.0161 14.0733 72.0161 12.647ZM72.9341 12.647C72.9341 13.6021 73.3843 14.1768 74.1372 14.1768C74.8862 14.1768 75.3492 13.5938 75.3492 12.6509C75.3492 11.7124 74.8814 11.1211 74.1372 11.1211C73.3892 11.1211 72.9341 11.6997 72.9341 12.647H72.9341Z" fill="white"/>
<path d="M79.898 12.6469C79.8697 12.351 79.9035 12.0524 79.9974 11.7704C80.0912 11.4883 80.243 11.229 80.4429 11.009C80.6428 10.789 80.8866 10.6132 81.1584 10.493C81.4303 10.3727 81.7243 10.3105 82.0215 10.3105C82.3188 10.3105 82.6128 10.3727 82.8846 10.493C83.1565 10.6132 83.4002 10.789 83.6001 11.009C83.8001 11.229 83.9518 11.4883 84.0457 11.7704C84.1395 12.0524 84.1734 12.351 84.1451 12.6469C84.1739 12.9431 84.1404 13.2421 84.0469 13.5247C83.9533 13.8072 83.8016 14.067 83.6016 14.2874C83.4016 14.5078 83.1577 14.684 82.8856 14.8045C82.6135 14.925 82.3191 14.9873 82.0215 14.9873C81.7239 14.9873 81.4296 14.925 81.1574 14.8045C80.8853 14.684 80.6414 14.5078 80.4414 14.2874C80.2414 14.067 80.0898 13.8072 79.9962 13.5247C79.9026 13.2421 79.8691 12.9431 79.898 12.6469ZM83.231 12.6469C83.231 11.6709 82.7925 11.1001 82.023 11.1001C81.2505 11.1001 80.816 11.6709 80.816 12.6469C80.816 13.6308 81.2506 14.1972 82.023 14.1972C82.7925 14.1972 83.231 13.6269 83.231 12.6469Z" fill="white"/>
<path d="M85.3374 10.397H86.1929V11.1123H86.2593C86.3719 10.8554 86.5619 10.6401 86.8028 10.4962C87.0437 10.3524 87.3234 10.2874 87.603 10.3101C87.8221 10.2936 88.0421 10.3267 88.2467 10.4068C88.4513 10.4869 88.6353 10.612 88.785 10.7728C88.9346 10.9336 89.0462 11.1261 89.1114 11.3359C89.1766 11.5457 89.1938 11.7675 89.1616 11.9849V14.8999H88.273V12.2081C88.273 11.4844 87.9585 11.1246 87.3013 11.1246C87.1525 11.1176 87.004 11.1429 86.866 11.1988C86.7279 11.2546 86.6036 11.3396 86.5014 11.448C86.3993 11.5564 86.3218 11.6856 86.2743 11.8267C86.2268 11.9678 86.2103 12.1176 86.2261 12.2657V14.8999H85.3374V10.397Z" fill="white"/>
<path d="M94.1831 9.27637V10.418H95.1587V11.1665H94.1831V13.4819C94.1831 13.9536 94.3774 14.1602 94.8198 14.1602C94.9331 14.1598 95.0462 14.1529 95.1587 14.1396V14.8799C94.9991 14.9084 94.8374 14.9236 94.6753 14.9253C93.687 14.9253 93.2935 14.5776 93.2935 13.7095V11.1665H92.5786V10.4179H93.2935V9.27637H94.1831Z" fill="white"/>
<path d="M96.3726 8.63965H97.2534V11.1211H97.3237C97.4419 10.8618 97.6371 10.6452 97.8828 10.5008C98.1285 10.3565 98.4127 10.2914 98.6967 10.3145C98.9147 10.3026 99.1326 10.339 99.3349 10.421C99.5371 10.5031 99.7188 10.6287 99.8669 10.7891C100.015 10.9494 100.126 11.1405 100.192 11.3486C100.258 11.5567 100.277 11.7768 100.248 11.9932V14.9004H99.3579V12.2124C99.3579 11.4932 99.0229 11.1289 98.3951 11.1289C98.2423 11.1164 98.0887 11.1374 97.9449 11.1904C97.8011 11.2435 97.6707 11.3273 97.5627 11.436C97.4547 11.5448 97.3718 11.6758 97.3197 11.8199C97.2676 11.9641 97.2477 12.1178 97.2613 12.2705V14.9004H96.3726L96.3726 8.63965Z" fill="white"/>
<path d="M105.429 13.6846C105.308 14.0962 105.047 14.4522 104.69 14.6903C104.334 14.9285 103.904 15.0336 103.478 14.9874C103.181 14.9952 102.887 14.9384 102.614 14.8209C102.342 14.7033 102.098 14.5279 101.9 14.3068C101.702 14.0856 101.555 13.8241 101.468 13.5403C101.381 13.2564 101.357 12.9571 101.398 12.6632C101.358 12.3683 101.383 12.0683 101.469 11.7837C101.556 11.499 101.702 11.2362 101.899 11.0132C102.096 10.7901 102.339 10.6119 102.61 10.4907C102.882 10.3695 103.177 10.3081 103.474 10.3106C104.727 10.3106 105.483 11.1666 105.483 12.5806V12.8907H102.303V12.9405C102.289 13.1058 102.31 13.2721 102.364 13.4288C102.418 13.5856 102.505 13.7293 102.618 13.8508C102.73 13.9722 102.867 14.0687 103.02 14.1341C103.172 14.1995 103.337 14.2324 103.502 14.2305C103.715 14.256 103.93 14.2178 104.121 14.1205C104.312 14.0233 104.469 13.8716 104.574 13.6846L105.429 13.6846ZM102.303 12.2335H104.578C104.589 12.0823 104.568 11.9305 104.517 11.7878C104.466 11.6451 104.386 11.5146 104.282 11.4048C104.177 11.2949 104.051 11.2081 103.911 11.1499C103.771 11.0918 103.621 11.0635 103.469 11.067C103.316 11.065 103.163 11.0939 103.021 11.1518C102.878 11.2098 102.749 11.2956 102.64 11.4044C102.532 11.5131 102.446 11.6424 102.388 11.7848C102.33 11.9272 102.301 12.0798 102.303 12.2335H102.303Z" fill="white"/>
</svg>
