<svg width="135" height="41" viewBox="0 0 135 41" fill="none" xmlns="http://www.w3.org/2000/svg">
<path d="M130 0.203125H5C2.23858 0.203125 0 2.4417 0 5.20312V35.2031C0 37.9646 2.23858 40.2031 5 40.2031H130C132.761 40.2031 135 37.9646 135 35.2031V5.20312C135 2.4417 132.761 0.203125 130 0.203125Z" fill="black"/>
<path d="M130 1.00313C131.114 1.00313 132.182 1.44562 132.97 2.23328C133.758 3.02093 134.2 4.08922 134.2 5.20312V35.2031C134.2 36.317 133.758 37.3853 132.97 38.173C132.182 38.9606 131.114 39.4031 130 39.4031H5C3.88609 39.4031 2.8178 38.9606 2.03015 38.173C1.2425 37.3853 0.8 36.317 0.8 35.2031V5.20312C0.8 4.08922 1.2425 3.02093 2.03015 2.23328C2.8178 1.44562 3.88609 1.00313 5 1.00313H130ZM130 0.203125H5C3.67392 0.203125 2.40215 0.729909 1.46447 1.66759C0.526784 2.60527 0 3.87704 0 5.20312V35.2031C0 36.5292 0.526784 37.801 1.46447 38.7387C2.40215 39.6763 3.67392 40.2031 5 40.2031H130C131.326 40.2031 132.598 39.6763 133.536 38.7387C134.473 37.801 135 36.5292 135 35.2031V5.20312C135 3.87704 134.473 2.60527 133.536 1.66759C132.598 0.729909 131.326 0.203125 130 0.203125Z" fill="#A6A6A6"/>
<path d="M44.3757 10.6889H46.4666V13.59C46.1529 13.6964 45.8297 13.7755 45.4969 13.8273C45.1668 13.8792 44.7972 13.9051 44.388 13.9051C43.7661 13.9051 43.2409 13.781 42.8127 13.5327C42.3871 13.2845 42.0639 12.9312 41.8429 12.4729C41.622 12.0119 41.5115 11.465 41.5115 10.8321C41.5115 10.2129 41.6329 9.6728 41.8756 9.21179C42.1212 8.75078 42.4744 8.39343 42.9354 8.13974C43.3992 7.88332 43.9556 7.75511 44.6049 7.75511C44.9377 7.75511 45.2527 7.78648 45.5501 7.84922C45.8501 7.90923 46.1284 7.99516 46.3848 8.107L46.1188 8.71259C45.8979 8.61711 45.6537 8.53528 45.3864 8.46708C45.1218 8.39888 44.8477 8.36479 44.564 8.36479C44.0757 8.36479 43.6569 8.46572 43.3078 8.66758C42.9613 8.86944 42.6954 9.1545 42.5099 9.52276C42.3271 9.89103 42.2357 10.3275 42.2357 10.8321C42.2357 11.3313 42.3162 11.7664 42.4771 12.1374C42.6381 12.5057 42.889 12.7921 43.23 12.9967C43.571 13.2013 44.0102 13.3036 44.5476 13.3036C44.8176 13.3036 45.0495 13.2886 45.2432 13.2586C45.4369 13.2258 45.6128 13.1876 45.771 13.144V11.3109H44.3757V10.6889ZM51.2459 13.8232H47.9151V7.84104H51.2459V8.4548H48.6107V10.3902H51.0945V10.9958H48.6107V13.2095H51.2459V13.8232ZM54.4088 13.8232H53.7091V8.4548H51.8269V7.84104H56.2829V8.4548H54.4088V13.8232ZM59.364 13.8232V7.84104H60.0596V13.8232H59.364ZM63.5417 13.8232H62.842V8.4548H60.9598V7.84104H65.4158V8.4548H63.5417V13.8232ZM73.6853 10.824C73.6853 11.285 73.6266 11.7051 73.5093 12.0842C73.392 12.4607 73.2174 12.7853 72.9856 13.0581C72.7564 13.3281 72.4714 13.5368 72.1304 13.6841C71.7894 13.8314 71.3939 13.9051 70.9438 13.9051C70.48 13.9051 70.0749 13.8314 69.7285 13.6841C69.3848 13.5368 69.0984 13.3268 68.8692 13.054C68.6428 12.7812 68.4723 12.4552 68.3578 12.076C68.2459 11.6969 68.19 11.2768 68.19 10.8158C68.19 10.2047 68.2909 9.6687 68.4928 9.2077C68.6946 8.74669 69.0002 8.38797 69.4093 8.13155C69.8213 7.87513 70.3368 7.74692 70.956 7.74692C71.548 7.74692 72.0458 7.87377 72.4496 8.12746C72.856 8.38115 73.1629 8.7385 73.3702 9.19951C73.5803 9.65779 73.6853 10.1993 73.6853 10.824ZM68.9224 10.824C68.9224 11.3313 68.9947 11.7705 69.1393 12.1415C69.2839 12.5125 69.5048 12.7989 69.8022 13.0008C70.1022 13.2027 70.4828 13.3036 70.9438 13.3036C71.4075 13.3036 71.7867 13.2027 72.0813 13.0008C72.3786 12.7989 72.5982 12.5125 72.7401 12.1415C72.8819 11.7705 72.9528 11.3313 72.9528 10.824C72.9528 10.052 72.7905 9.44911 72.4659 9.01538C72.144 8.57892 71.6407 8.36069 70.956 8.36069C70.4923 8.36069 70.1104 8.46026 69.8103 8.65939C69.5103 8.85853 69.2866 9.14223 69.1393 9.51049C68.9947 9.87602 68.9224 10.3138 68.9224 10.824ZM79.6961 13.8232H78.8941L75.633 8.79852H75.6002C75.6084 8.93218 75.618 9.08494 75.6289 9.2568C75.6398 9.42592 75.648 9.60733 75.6534 9.80101C75.6616 9.99196 75.6657 10.187 75.6657 10.3861V13.8232H75.0192V7.84104H75.8171L79.066 12.8494H79.0946C79.0892 12.7539 79.0824 12.6189 79.0742 12.4443C79.066 12.267 79.0578 12.0774 79.0496 11.8755C79.0442 11.671 79.0414 11.4814 79.0414 11.3068V7.84104H79.6961V13.8232Z" fill="white"/>
<path d="M44.3757 10.6889V10.5889H44.2757V10.6889H44.3757ZM46.4666 10.6889H46.5666V10.5889H46.4666V10.6889ZM46.4666 13.59L46.4988 13.6847L46.5666 13.6617V13.59H46.4666ZM45.4969 13.8273L45.4815 13.7285L45.4814 13.7285L45.4969 13.8273ZM42.8127 13.5327L42.7623 13.6191L42.7625 13.6192L42.8127 13.5327ZM41.8429 12.4729L41.7527 12.5162L41.7528 12.5164L41.8429 12.4729ZM41.8756 9.21179L41.7874 9.16478L41.7872 9.16519L41.8756 9.21179ZM42.9354 8.13974L42.9836 8.22735L42.9838 8.22725L42.9354 8.13974ZM45.5501 7.84922L45.5294 7.94707L45.5305 7.94728L45.5501 7.84922ZM46.3848 8.107L46.4764 8.14721L46.5167 8.05542L46.4248 8.01534L46.3848 8.107ZM46.1188 8.71259L46.0792 8.80438L46.1704 8.84381L46.2104 8.7528L46.1188 8.71259ZM45.3864 8.46708L45.3614 8.56392L45.3617 8.56398L45.3864 8.46708ZM43.3078 8.66758L43.2577 8.581L43.2574 8.58118L43.3078 8.66758ZM42.5099 9.52276L42.4206 9.47778L42.4203 9.47831L42.5099 9.52276ZM42.4771 12.1374L42.3854 12.1772L42.3855 12.1775L42.4771 12.1374ZM43.23 12.9967L43.1786 13.0824L43.23 12.9967ZM45.2432 13.2586L45.2585 13.3574L45.2599 13.3572L45.2432 13.2586ZM45.771 13.144L45.7976 13.2404L45.871 13.2202V13.144H45.771ZM45.771 11.3109H45.871V11.2109H45.771V11.3109ZM44.3757 11.3109H44.2757V11.4109H44.3757V11.3109ZM44.3757 10.6889V10.7889H46.4666V10.6889V10.5889H44.3757V10.6889ZM46.4666 10.6889H46.3666V13.59H46.4666H46.5666V10.6889H46.4666ZM46.4666 13.59L46.4345 13.4953C46.1264 13.5998 45.8087 13.6776 45.4815 13.7285L45.4969 13.8273L45.5123 13.9261C45.8507 13.8734 46.1795 13.793 46.4988 13.6847L46.4666 13.59ZM45.4969 13.8273L45.4814 13.7285C45.1574 13.7794 44.7931 13.8051 44.388 13.8051V13.9051V14.0051C44.8013 14.0051 45.1762 13.9789 45.5124 13.9261L45.4969 13.8273ZM44.388 13.9051V13.8051C43.7792 13.8051 43.2724 13.6836 42.8628 13.4462L42.8127 13.5327L42.7625 13.6192C43.2095 13.8783 43.7529 14.0051 44.388 14.0051V13.9051ZM42.8127 13.5327L42.8631 13.4463C42.4553 13.2085 42.1456 12.8705 41.933 12.4295L41.8429 12.4729L41.7528 12.5164C41.9821 12.992 42.3189 13.3605 42.7623 13.6191L42.8127 13.5327ZM41.8429 12.4729L41.9331 12.4297C41.7199 11.985 41.6115 11.4535 41.6115 10.8321H41.5115H41.4115C41.4115 11.4765 41.524 12.0389 41.7527 12.5162L41.8429 12.4729ZM41.5115 10.8321H41.6115C41.6115 10.2261 41.7302 9.70255 41.9641 9.25838L41.8756 9.21179L41.7872 9.16519C41.5355 9.64304 41.4115 10.1997 41.4115 10.8321H41.5115ZM41.8756 9.21179L41.9639 9.25879C42.2002 8.81505 42.5395 8.47175 42.9836 8.22735L42.9354 8.13974L42.8872 8.05213C42.4093 8.3151 42.0421 8.6865 41.7874 9.16478L41.8756 9.21179ZM42.9354 8.13974L42.9838 8.22725C43.4297 7.98067 43.9688 7.85511 44.6049 7.85511V7.75511V7.65511C43.9425 7.65511 43.3686 7.78596 42.887 8.05222L42.9354 8.13974ZM44.6049 7.75511V7.85511C44.9314 7.85511 45.2395 7.88588 45.5294 7.94706L45.5501 7.84922L45.5707 7.75137C45.266 7.68707 44.944 7.65511 44.6049 7.65511V7.75511ZM45.5501 7.84922L45.5305 7.94728C45.8242 8.00602 46.0955 8.08993 46.3448 8.19866L46.3848 8.107L46.4248 8.01534C46.1612 7.90039 45.8761 7.81244 45.5697 7.75116L45.5501 7.84922ZM46.3848 8.107L46.2932 8.06679L46.0273 8.67238L46.1188 8.71259L46.2104 8.7528L46.4764 8.14721L46.3848 8.107ZM46.1188 8.71259L46.1585 8.62079C45.9321 8.52295 45.6828 8.4395 45.4111 8.37018L45.3864 8.46708L45.3617 8.56398C45.6246 8.63105 45.8637 8.71128 46.0792 8.80438L46.1188 8.71259ZM45.3864 8.46708L45.4114 8.37024C45.1383 8.29987 44.8557 8.26479 44.564 8.26479V8.36479V8.46479C44.8396 8.46479 45.1053 8.4979 45.3614 8.56392L45.3864 8.46708ZM44.564 8.36479V8.26479C44.0618 8.26479 43.625 8.36867 43.2577 8.581L43.3078 8.66758L43.3578 8.75415C43.6889 8.56277 44.0895 8.46479 44.564 8.46479V8.36479ZM43.3078 8.66758L43.2574 8.58118C42.8938 8.79307 42.6145 9.09275 42.4206 9.47778L42.5099 9.52276L42.5992 9.56775C42.7762 9.21625 43.0289 8.94581 43.3581 8.75398L43.3078 8.66758ZM42.5099 9.52276L42.4203 9.47831C42.2293 9.86317 42.1357 10.3155 42.1357 10.8321H42.2357H42.3357C42.3357 10.3395 42.4249 9.91888 42.5994 9.56722L42.5099 9.52276ZM42.2357 10.8321H42.1357C42.1357 11.3419 42.2179 11.7911 42.3854 12.1772L42.4771 12.1374L42.5689 12.0976C42.4145 11.7418 42.3357 11.3208 42.3357 10.8321H42.2357ZM42.4771 12.1374L42.3855 12.1775C42.5547 12.5646 42.8196 12.867 43.1786 13.0824L43.23 12.9967L43.2815 12.9109C42.9585 12.7172 42.7215 12.4468 42.5688 12.0974L42.4771 12.1374ZM43.23 12.9967L43.1786 13.0824C43.5396 13.2991 43.9982 13.4036 44.5476 13.4036V13.3036V13.2036C44.0222 13.2036 43.6024 13.1035 43.2815 12.9109L43.23 12.9967ZM44.5476 13.3036V13.4036C44.821 13.4036 45.0583 13.3884 45.2585 13.3574L45.2432 13.2586L45.2279 13.1598C45.0408 13.1887 44.8143 13.2036 44.5476 13.2036V13.3036ZM45.2432 13.2586L45.2599 13.3572C45.4563 13.324 45.6356 13.2851 45.7976 13.2404L45.771 13.144L45.7444 13.0476C45.5901 13.0902 45.4175 13.1277 45.2265 13.16L45.2432 13.2586ZM45.771 13.144H45.871V11.3109H45.771H45.671V13.144H45.771ZM45.771 11.3109V11.2109H44.3757V11.3109V11.4109H45.771V11.3109ZM44.3757 11.3109H44.4757V10.6889H44.3757H44.2757V11.3109H44.3757ZM51.2459 13.8232V13.9232H51.3459V13.8232H51.2459ZM47.9151 13.8232H47.8151V13.9232H47.9151V13.8232ZM47.9151 7.84104V7.74104H47.8151V7.84104H47.9151ZM51.2459 7.84104H51.3459V7.74104H51.2459V7.84104ZM51.2459 8.4548V8.5548H51.3459V8.4548H51.2459ZM48.6107 8.4548V8.3548H48.5107V8.4548H48.6107ZM48.6107 10.3902H48.5107V10.4902H48.6107V10.3902ZM51.0945 10.3902H51.1945V10.2902H51.0945V10.3902ZM51.0945 10.9958V11.0958H51.1945V10.9958H51.0945ZM48.6107 10.9958V10.8958H48.5107V10.9958H48.6107ZM48.6107 13.2095H48.5107V13.3095H48.6107V13.2095ZM51.2459 13.2095H51.3459V13.1095H51.2459V13.2095ZM51.2459 13.8232V13.7232H47.9151V13.8232V13.9232H51.2459V13.8232ZM47.9151 13.8232H48.0151V7.84104H47.9151H47.8151V13.8232H47.9151ZM47.9151 7.84104V7.94104H51.2459V7.84104V7.74104H47.9151V7.84104ZM51.2459 7.84104H51.1459V8.4548H51.2459H51.3459V7.84104H51.2459ZM51.2459 8.4548V8.3548H48.6107V8.4548V8.5548H51.2459V8.4548ZM48.6107 8.4548H48.5107V10.3902H48.6107H48.7107V8.4548H48.6107ZM48.6107 10.3902V10.4902H51.0945V10.3902V10.2902H48.6107V10.3902ZM51.0945 10.3902H50.9945V10.9958H51.0945H51.1945V10.3902H51.0945ZM51.0945 10.9958V10.8958H48.6107V10.9958V11.0958H51.0945V10.9958ZM48.6107 10.9958H48.5107V13.2095H48.6107H48.7107V10.9958H48.6107ZM48.6107 13.2095V13.3095H51.2459V13.2095V13.1095H48.6107V13.2095ZM51.2459 13.2095H51.1459V13.8232H51.2459H51.3459V13.2095H51.2459ZM54.4088 13.8232V13.9232H54.5088V13.8232H54.4088ZM53.7091 13.8232H53.6091V13.9232H53.7091V13.8232ZM53.7091 8.4548H53.8091V8.3548H53.7091V8.4548ZM51.8269 8.4548H51.7269V8.5548H51.8269V8.4548ZM51.8269 7.84104V7.74104H51.7269V7.84104H51.8269ZM56.2829 7.84104H56.3829V7.74104H56.2829V7.84104ZM56.2829 8.4548V8.5548H56.3829V8.4548H56.2829ZM54.4088 8.4548V8.3548H54.3088V8.4548H54.4088ZM54.4088 13.8232V13.7232H53.7091V13.8232V13.9232H54.4088V13.8232ZM53.7091 13.8232H53.8091V8.4548H53.7091H53.6091V13.8232H53.7091ZM53.7091 8.4548V8.3548H51.8269V8.4548V8.5548H53.7091V8.4548ZM51.8269 8.4548H51.9269V7.84104H51.8269H51.7269V8.4548H51.8269ZM51.8269 7.84104V7.94104H56.2829V7.84104V7.74104H51.8269V7.84104ZM56.2829 7.84104H56.1829V8.4548H56.2829H56.3829V7.84104H56.2829ZM56.2829 8.4548V8.3548H54.4088V8.4548V8.5548H56.2829V8.4548ZM54.4088 8.4548H54.3088V13.8232H54.4088H54.5088V8.4548H54.4088ZM59.364 13.8232H59.264V13.9232H59.364V13.8232ZM59.364 7.84104V7.74104H59.264V7.84104H59.364ZM60.0596 7.84104H60.1596V7.74104H60.0596V7.84104ZM60.0596 13.8232V13.9232H60.1596V13.8232H60.0596ZM59.364 13.8232H59.464V7.84104H59.364H59.264V13.8232H59.364ZM59.364 7.84104V7.94104H60.0596V7.84104V7.74104H59.364V7.84104ZM60.0596 7.84104H59.9596V13.8232H60.0596H60.1596V7.84104H60.0596ZM60.0596 13.8232V13.7232H59.364V13.8232V13.9232H60.0596V13.8232ZM63.5417 13.8232V13.9232H63.6417V13.8232H63.5417ZM62.842 13.8232H62.742V13.9232H62.842V13.8232ZM62.842 8.4548H62.942V8.3548H62.842V8.4548ZM60.9598 8.4548H60.8598V8.5548H60.9598V8.4548ZM60.9598 7.84104V7.74104H60.8598V7.84104H60.9598ZM65.4158 7.84104H65.5158V7.74104H65.4158V7.84104ZM65.4158 8.4548V8.5548H65.5158V8.4548H65.4158ZM63.5417 8.4548V8.3548H63.4417V8.4548H63.5417ZM63.5417 13.8232V13.7232H62.842V13.8232V13.9232H63.5417V13.8232ZM62.842 13.8232H62.942V8.4548H62.842H62.742V13.8232H62.842ZM62.842 8.4548V8.3548H60.9598V8.4548V8.5548H62.842V8.4548ZM60.9598 8.4548H61.0598V7.84104H60.9598H60.8598V8.4548H60.9598ZM60.9598 7.84104V7.94104H65.4158V7.84104V7.74104H60.9598V7.84104ZM65.4158 7.84104H65.3158V8.4548H65.4158H65.5158V7.84104H65.4158ZM65.4158 8.4548V8.3548H63.5417V8.4548V8.5548H65.4158V8.4548ZM63.5417 8.4548H63.4417V13.8232H63.5417H63.6417V8.4548H63.5417ZM73.5093 12.0842L73.6048 12.114L73.6049 12.1138L73.5093 12.0842ZM72.9856 13.0581L72.9094 12.9933L72.9093 12.9934L72.9856 13.0581ZM72.1304 13.6841L72.17 13.7759L72.1304 13.6841ZM69.7285 13.6841L69.6891 13.776L69.6894 13.7761L69.7285 13.6841ZM68.8692 13.054L68.7923 13.1179L68.7927 13.1183L68.8692 13.054ZM68.3578 12.076L68.2618 12.1043L68.262 12.105L68.3578 12.076ZM69.4093 8.13155L69.3565 8.04666L69.3562 8.04682L69.4093 8.13155ZM72.4496 8.12746L72.3963 8.21213L72.3966 8.21229L72.4496 8.12746ZM73.3702 9.19951L73.279 9.24053L73.2793 9.24118L73.3702 9.19951ZM69.8022 13.0008L69.746 13.0835L69.7463 13.0838L69.8022 13.0008ZM72.0813 13.0008L72.0251 12.9181L72.0248 12.9183L72.0813 13.0008ZM72.4659 9.01538L72.3854 9.07474L72.3859 9.0753L72.4659 9.01538ZM69.8103 8.65939L69.755 8.57607L69.8103 8.65939ZM69.1393 9.51049L69.0464 9.47335L69.0463 9.47371L69.1393 9.51049ZM73.6853 10.824H73.5853C73.5853 11.2765 73.5277 11.6865 73.4138 12.0547L73.5093 12.0842L73.6049 12.1138C73.7256 11.7236 73.7853 11.2934 73.7853 10.824H73.6853ZM73.5093 12.0842L73.4139 12.0545C73.3002 12.4194 73.1317 12.7318 72.9094 12.9933L72.9856 13.0581L73.0618 13.1228C73.3032 12.8388 73.4839 12.502 73.6048 12.114L73.5093 12.0842ZM72.9856 13.0581L72.9093 12.9934C72.6906 13.2511 72.4183 13.4508 72.0907 13.5923L72.1304 13.6841L72.17 13.7759C72.5244 13.6228 72.8222 13.4051 73.0618 13.1228L72.9856 13.0581ZM72.1304 13.6841L72.0907 13.5923C71.7646 13.7332 71.3831 13.8051 70.9438 13.8051V13.9051V14.0051C71.4047 14.0051 71.8142 13.9297 72.17 13.7759L72.1304 13.6841ZM70.9438 13.9051V13.8051C70.4905 13.8051 70.0992 13.7331 69.7676 13.5921L69.7285 13.6841L69.6894 13.7761C70.0507 13.9298 70.4696 14.0051 70.9438 14.0051V13.9051ZM69.7285 13.6841L69.7679 13.5922C69.4378 13.4508 69.1644 13.2499 68.9458 12.9897L68.8692 13.054L68.7927 13.1183C69.0324 13.4037 69.3318 13.6229 69.6891 13.776L69.7285 13.6841ZM68.8692 13.054L68.9462 12.9901C68.7292 12.7287 68.5646 12.415 68.4535 12.0471L68.3578 12.076L68.262 12.105C68.38 12.4954 68.5564 12.8336 68.7923 13.1179L68.8692 13.054ZM68.3578 12.076L68.4537 12.0478C68.3449 11.6791 68.29 11.2688 68.29 10.8158H68.19H68.09C68.09 11.2848 68.1469 11.7146 68.2618 12.1043L68.3578 12.076ZM68.19 10.8158H68.29C68.29 10.2156 68.3891 9.69376 68.5844 9.24781L68.4928 9.2077L68.4012 9.16758C68.1927 9.64365 68.09 10.1938 68.09 10.8158H68.19ZM68.4928 9.2077L68.5844 9.24781C68.7786 8.80438 69.071 8.46157 69.4624 8.21629L69.4093 8.13155L69.3562 8.04682C68.9293 8.31437 68.6107 8.68899 68.4012 9.16758L68.4928 9.2077ZM69.4093 8.13155L69.4622 8.21645C69.8544 7.97229 70.3504 7.84692 70.956 7.84692V7.74692V7.64692C70.3232 7.64692 69.7881 7.77798 69.3565 8.04666L69.4093 8.13155ZM70.956 7.74692V7.84692C71.5337 7.84692 72.012 7.97062 72.3963 8.21213L72.4496 8.12746L72.5028 8.04279C72.0796 7.77692 71.5623 7.64692 70.956 7.64692V7.74692ZM72.4496 8.12746L72.3966 8.21229C72.7853 8.4549 73.0793 8.79654 73.279 9.24053L73.3702 9.19951L73.4614 9.1585C73.2464 8.68046 72.9267 8.30741 72.5025 8.04263L72.4496 8.12746ZM73.3702 9.19951L73.2793 9.24118C73.4821 9.68365 73.5853 10.2103 73.5853 10.824H73.6853H73.7853C73.7853 10.1882 73.6784 9.63194 73.4611 9.15785L73.3702 9.19951ZM68.9224 10.824H68.8224C68.8224 11.3405 68.896 11.7926 69.0461 12.1778L69.1393 12.1415L69.2325 12.1052C69.0934 11.7485 69.0224 11.3222 69.0224 10.824H68.9224ZM69.1393 12.1415L69.0461 12.1778C69.1972 12.5656 69.4301 12.8691 69.746 13.0835L69.8022 13.0008L69.8583 12.9181C69.5795 12.7288 69.3705 12.4595 69.2325 12.1052L69.1393 12.1415ZM69.8022 13.0008L69.7463 13.0838C70.0669 13.2994 70.4683 13.4036 70.9438 13.4036V13.3036V13.2036C70.4972 13.2036 70.1375 13.1059 69.858 12.9178L69.8022 13.0008ZM70.9438 13.3036V13.4036C71.4217 13.4036 71.8222 13.2995 72.1378 13.0833L72.0813 13.0008L72.0248 12.9183C71.7511 13.1058 71.3933 13.2036 70.9438 13.2036V13.3036ZM72.0813 13.0008L72.1375 13.0835C72.4535 12.869 72.6851 12.5652 72.8335 12.1772L72.7401 12.1415L72.6467 12.1058C72.5113 12.4598 72.3038 12.7289 72.0251 12.9181L72.0813 13.0008ZM72.7401 12.1415L72.8335 12.1772C72.9807 11.7922 73.0528 11.3403 73.0528 10.824H72.9528H72.8528C72.8528 11.3224 72.7831 11.7489 72.6467 12.1058L72.7401 12.1415ZM72.9528 10.824H73.0528C73.0528 10.0393 72.888 9.41246 72.546 8.95546L72.4659 9.01538L72.3859 9.0753C72.6931 9.48576 72.8528 10.0647 72.8528 10.824H72.9528ZM72.4659 9.01538L72.5464 8.95603C72.2008 8.48738 71.6633 8.26069 70.956 8.26069V8.36069V8.46069C71.6182 8.46069 72.0873 8.67046 72.3854 9.07474L72.4659 9.01538ZM70.956 8.36069V8.26069C70.4782 8.26069 70.0756 8.36333 69.755 8.57607L69.8103 8.65939L69.8656 8.74272C70.1452 8.55719 70.5064 8.46069 70.956 8.46069V8.36069ZM69.8103 8.65939L69.755 8.57607C69.4364 8.78757 69.2005 9.08823 69.0464 9.47335L69.1393 9.51049L69.2321 9.54763C69.3727 9.19622 69.5842 8.92949 69.8656 8.74272L69.8103 8.65939ZM69.1393 9.51049L69.0463 9.47371C68.8959 9.85387 68.8224 10.3048 68.8224 10.824H68.9224H69.0224C69.0224 10.3229 69.0935 9.89818 69.2323 9.54727L69.1393 9.51049ZM79.6961 13.8232V13.9232H79.7961V13.8232H79.6961ZM78.8941 13.8232L78.8102 13.8777L78.8398 13.9232H78.8941V13.8232ZM75.633 8.79852L75.7169 8.74407L75.6873 8.69852H75.633V8.79852ZM75.6002 8.79852V8.69852H75.4939L75.5004 8.80463L75.6002 8.79852ZM75.6289 9.2568L75.5291 9.26313L75.5291 9.26324L75.6289 9.2568ZM75.6534 9.80101L75.5535 9.80382L75.5535 9.80529L75.6534 9.80101ZM75.6657 13.8232V13.9232H75.7657V13.8232H75.6657ZM75.0192 13.8232H74.9192V13.9232H75.0192V13.8232ZM75.0192 7.84104V7.74104H74.9192V7.84104H75.0192ZM75.8171 7.84104L75.901 7.78661L75.8714 7.74104H75.8171V7.84104ZM79.066 12.8494L78.9821 12.9038L79.0117 12.9494H79.066V12.8494ZM79.0946 12.8494V12.9494H79.2005L79.1945 12.8437L79.0946 12.8494ZM79.0742 12.4443L78.9743 12.4489L78.9743 12.449L79.0742 12.4443ZM79.0496 11.8755L78.9496 11.8782L78.9497 11.8796L79.0496 11.8755ZM79.0414 7.84104V7.74104H78.9414V7.84104H79.0414ZM79.6961 7.84104H79.7961V7.74104H79.6961V7.84104ZM79.6961 13.8232V13.7232H78.8941V13.8232V13.9232H79.6961V13.8232ZM78.8941 13.8232L78.978 13.7688L75.7169 8.74407L75.633 8.79852L75.5491 8.85296L78.8102 13.8777L78.8941 13.8232ZM75.633 8.79852V8.69852H75.6002V8.79852V8.89852H75.633V8.79852ZM75.6002 8.79852L75.5004 8.80463C75.5086 8.93838 75.5182 9.09122 75.5291 9.26313L75.6289 9.2568L75.7287 9.25046C75.7178 9.07866 75.7082 8.92598 75.7 8.7924L75.6002 8.79852ZM75.6289 9.2568L75.5291 9.26324C75.5399 9.431 75.548 9.61118 75.5535 9.80382L75.6534 9.80101L75.7534 9.79819C75.7479 9.60347 75.7397 9.42085 75.7287 9.25036L75.6289 9.2568ZM75.6534 9.80101L75.5535 9.80529C75.5616 9.99475 75.5657 10.1884 75.5657 10.3861H75.6657H75.7657C75.7657 10.1856 75.7616 9.98916 75.7533 9.79672L75.6534 9.80101ZM75.6657 10.3861H75.5657V13.8232H75.6657H75.7657V10.3861H75.6657ZM75.6657 13.8232V13.7232H75.0192V13.8232V13.9232H75.6657V13.8232ZM75.0192 13.8232H75.1192V7.84104H75.0192H74.9192V13.8232H75.0192ZM75.0192 7.84104V7.94104H75.8171V7.84104V7.74104H75.0192V7.84104ZM75.8171 7.84104L75.7332 7.89546L78.9821 12.9038L79.066 12.8494L79.1499 12.795L75.901 7.78661L75.8171 7.84104ZM79.066 12.8494V12.9494H79.0946V12.8494V12.7494H79.066V12.8494ZM79.0946 12.8494L79.1945 12.8437C79.189 12.7487 79.1822 12.6141 79.1741 12.4396L79.0742 12.4443L78.9743 12.449C78.9825 12.6237 78.9893 12.7591 78.9948 12.8551L79.0946 12.8494ZM79.0742 12.4443L79.1741 12.4397C79.1659 12.2626 79.1577 12.0732 79.1495 11.8715L79.0496 11.8755L78.9497 11.8796C78.9579 12.0816 78.9661 12.2714 78.9743 12.4489L79.0742 12.4443ZM79.0496 11.8755L79.1496 11.8729C79.1441 11.669 79.1414 11.4803 79.1414 11.3068H79.0414H78.9414C78.9414 11.4824 78.9442 11.6729 78.9497 11.8782L79.0496 11.8755ZM79.0414 11.3068H79.1414V7.84104H79.0414H78.9414V11.3068H79.0414ZM79.0414 7.84104V7.94104H79.6961V7.84104V7.74104H79.0414V7.84104ZM79.6961 7.84104H79.5961V13.8232H79.6961H79.7961V7.84104H79.6961Z" fill="white"/>
<path d="M68.14 21.953C67.2974 21.955 66.4744 22.2068 65.7749 22.6765C65.0755 23.1463 64.531 23.8129 64.2104 24.5921C63.8898 25.3712 63.8075 26.228 63.9738 27.0539C64.1401 27.8799 64.5476 28.638 65.1448 29.2324C65.742 29.8267 66.502 30.2307 67.3287 30.3931C68.1555 30.5556 69.0118 30.4692 69.7895 30.1449C70.5671 29.8207 71.2311 29.2731 71.6976 28.5715C72.164 27.8698 72.412 27.0456 72.41 26.203C72.4181 25.641 72.3131 25.083 72.1012 24.5624C71.8892 24.0418 71.5746 23.5691 71.1762 23.1726C70.7778 22.776 70.3037 22.4637 69.7821 22.2542C69.2604 22.0447 68.702 21.9423 68.14 21.953ZM68.14 28.783C67.6236 28.8192 67.1082 28.6991 66.6609 28.4384C66.2137 28.1778 65.8552 27.7886 65.632 27.3215C65.4088 26.8544 65.3314 26.3309 65.4097 25.8192C65.4879 25.3075 65.7184 24.8311 66.0709 24.4521C66.4235 24.073 66.882 23.8088 67.3867 23.6938C67.8915 23.5788 68.4192 23.6183 68.9012 23.8071C69.3832 23.996 69.7972 24.3255 70.0895 24.7528C70.3818 25.18 70.5387 25.6854 70.54 26.203C70.5561 26.5311 70.5063 26.859 70.3937 27.1675C70.2811 27.476 70.1078 27.7588 69.8841 27.9992C69.6604 28.2397 69.3909 28.4329 69.0913 28.5675C68.7918 28.7022 68.4683 28.7754 68.14 28.783ZM58.82 21.953C57.9774 21.955 57.1544 22.2068 56.4549 22.6765C55.7555 23.1463 55.211 23.8129 54.8904 24.5921C54.5698 25.3712 54.4875 26.228 54.6538 27.0539C54.8201 27.8799 55.2276 28.638 55.8248 29.2324C56.422 29.8267 57.182 30.2307 58.0087 30.3931C58.8355 30.5556 59.6918 30.4692 60.4695 30.1449C61.2471 29.8207 61.9111 29.2731 62.3776 28.5715C62.844 27.8698 63.0919 27.0456 63.09 26.203C63.0981 25.641 62.9931 25.083 62.7812 24.5624C62.5692 24.0418 62.2546 23.5691 61.8562 23.1726C61.4578 22.776 60.9837 22.4637 60.4621 22.2542C59.9404 22.0447 59.382 21.9423 58.82 21.953ZM58.82 28.783C58.3036 28.8192 57.7882 28.6991 57.3409 28.4384C56.8937 28.1778 56.5352 27.7886 56.312 27.3215C56.0888 26.8544 56.0114 26.3309 56.0897 25.8192C56.1679 25.3075 56.3984 24.8311 56.7509 24.4521C57.1035 24.073 57.562 23.8088 58.0667 23.6938C58.5715 23.5788 59.0992 23.6183 59.5812 23.8071C60.0632 23.996 60.4772 24.3255 60.7695 24.7528C61.0618 25.18 61.2187 25.6854 61.22 26.203C61.2361 26.5311 61.1863 26.859 61.0737 27.1675C60.9611 27.476 60.7878 27.7588 60.5641 27.9992C60.3404 28.2397 60.0709 28.4329 59.7713 28.5675C59.4718 28.7022 59.1483 28.7754 58.82 28.783ZM47.74 23.263V25.063H52.06C51.9922 25.9109 51.6398 26.7108 51.06 27.333C50.6266 27.7746 50.1054 28.1202 49.5301 28.3476C48.9547 28.5749 48.3381 28.679 47.72 28.653C46.4469 28.653 45.226 28.1473 44.3259 27.2472C43.4257 26.347 42.92 25.1261 42.92 23.853C42.92 22.58 43.4257 21.3591 44.3259 20.4589C45.226 19.5588 46.4469 19.053 47.72 19.053C48.9404 19.0349 50.1189 19.4984 51 20.343L52.27 19.073C51.674 18.4836 50.9663 18.0189 50.1884 17.7064C49.4106 17.3939 48.5782 17.2398 47.74 17.253C46.851 17.2184 45.9641 17.3637 45.1326 17.68C44.3011 17.9964 43.5419 18.4773 42.9007 19.0941C42.2595 19.7108 41.7494 20.4506 41.401 21.2692C41.0525 22.0878 40.8729 22.9684 40.8729 23.858C40.8729 24.7477 41.0525 25.6282 41.401 26.4468C41.7494 27.2655 42.2595 28.0053 42.9007 28.622C43.5419 29.2388 44.3011 29.7197 45.1326 30.0361C45.9641 30.3524 46.851 30.4976 47.74 30.463C48.5954 30.4972 49.4484 30.35 50.2429 30.0312C51.0374 29.7124 51.7555 29.2291 52.35 28.613C53.4001 27.4595 53.9596 25.9422 53.91 24.383C53.9136 24.0078 53.8834 23.6329 53.82 23.263H47.74ZM93.05 24.663C92.7892 23.8958 92.3015 23.2258 91.6515 22.7419C91.0015 22.258 90.2198 21.9829 89.41 21.953C88.863 21.952 88.3216 22.0631 87.8192 22.2796C87.3169 22.4961 86.8643 22.8133 86.4894 23.2116C86.1145 23.6099 85.8252 24.0809 85.6396 24.5954C85.4539 25.11 85.3758 25.6571 85.41 26.203C85.4014 27.1159 85.6884 28.007 86.2281 28.7433C86.7678 29.4796 87.5312 30.0215 88.4042 30.2882C89.2773 30.5548 90.2132 30.5319 91.0722 30.2228C91.9311 29.9136 92.667 29.3349 93.17 28.573L91.72 27.573C91.5038 27.9333 91.1972 28.2308 90.8306 28.4361C90.464 28.6413 90.0501 28.7471 89.63 28.743C89.1965 28.7609 88.7678 28.6473 88.4002 28.4171C88.0325 28.1868 87.7431 27.8508 87.57 27.453L93.26 25.103L93.05 24.663ZM87.25 26.083C87.2297 25.7724 87.2716 25.4609 87.3733 25.1667C87.4749 24.8724 87.6342 24.6015 87.8419 24.3696C88.0495 24.1377 88.3014 23.9496 88.5827 23.8162C88.8639 23.6829 89.169 23.607 89.48 23.593C89.8022 23.5734 90.123 23.6492 90.4023 23.8111C90.6816 23.973 90.9069 24.2137 91.05 24.503L87.25 26.083ZM82.63 30.203H84.5V17.703H82.63V30.203ZM79.57 22.903H79.5C79.2206 22.5849 78.8759 22.3309 78.4893 22.1583C78.1027 21.9857 77.6833 21.8986 77.26 21.903C76.1672 21.956 75.1366 22.4275 74.382 23.2196C73.6273 24.0118 73.2063 25.0639 73.2063 26.158C73.2063 27.2522 73.6273 28.3043 74.382 29.0965C75.1366 29.8886 76.1672 30.3601 77.26 30.413C77.6839 30.4216 78.1046 30.3363 78.4918 30.1635C78.879 29.9906 79.2233 29.7344 79.5 29.413H79.57V30.023C79.57 31.653 78.7 32.523 77.3 32.523C76.8323 32.5128 76.3782 32.3637 75.9954 32.0949C75.6126 31.826 75.3183 31.4495 75.15 31.013L73.53 31.683C73.8295 32.4353 74.3502 33.0789 75.0234 33.5289C75.6965 33.9788 76.4904 34.2139 77.3 34.203C79.49 34.203 81.3 32.913 81.3 29.773V22.203H79.57V22.903ZM77.42 28.783C76.7648 28.7422 76.1498 28.4531 75.7003 27.9747C75.2508 27.4963 75.0005 26.8645 75.0005 26.208C75.0005 25.5516 75.2508 24.9198 75.7003 24.4414C76.1498 23.963 76.7648 23.6739 77.42 23.633C77.7402 23.6469 78.0544 23.725 78.3438 23.8627C78.6333 24.0004 78.8921 24.1949 79.1048 24.4347C79.3175 24.6745 79.4798 24.9546 79.5821 25.2584C79.6843 25.5622 79.7244 25.8834 79.7 26.203C79.7273 26.5237 79.6892 26.8466 79.5881 27.1522C79.4871 27.4578 79.3251 27.7397 79.1119 27.9808C78.8988 28.222 78.639 28.4174 78.3482 28.5553C78.0574 28.6932 77.7416 28.7707 77.42 28.783ZM101.81 17.703H97.33V30.203H99.2V25.463H101.81C102.343 25.5013 102.878 25.4294 103.382 25.2518C103.886 25.0741 104.348 24.7946 104.739 24.4305C105.13 24.0665 105.442 23.6258 105.655 23.1359C105.869 22.646 105.979 22.1174 105.979 21.583C105.979 21.0487 105.869 20.5201 105.655 20.0302C105.442 19.5403 105.13 19.0996 104.739 18.7356C104.348 18.3715 103.886 18.092 103.382 17.9143C102.878 17.7367 102.343 17.6648 101.81 17.703ZM101.81 23.703H99.2V19.443H101.85C102.131 19.443 102.409 19.4984 102.669 19.6059C102.929 19.7135 103.164 19.8711 103.363 20.0698C103.562 20.2686 103.72 20.5045 103.827 20.7641C103.935 21.0237 103.99 21.302 103.99 21.583C103.99 21.8641 103.935 22.1424 103.827 22.402C103.72 22.6616 103.562 22.8975 103.363 23.0963C103.164 23.295 102.929 23.4526 102.669 23.5601C102.409 23.6677 102.131 23.723 101.85 23.723L101.81 23.703ZM113.35 21.913C112.669 21.8711 111.991 22.0296 111.399 22.3691C110.807 22.7085 110.328 23.214 110.02 23.823L111.67 24.513C111.837 24.2125 112.087 23.9666 112.39 23.8051C112.694 23.6436 113.038 23.5734 113.38 23.603C113.617 23.5753 113.858 23.5951 114.088 23.6614C114.317 23.7276 114.531 23.8389 114.718 23.9888C114.904 24.1386 115.058 24.3241 115.172 24.5343C115.286 24.7445 115.356 24.9752 115.38 25.213V25.333C114.779 25.017 114.109 24.8522 113.43 24.853C111.65 24.853 109.83 25.853 109.83 27.673C109.848 28.0599 109.943 28.4393 110.11 28.7886C110.277 29.1379 110.513 29.4501 110.803 29.7067C111.093 29.9632 111.431 30.1588 111.799 30.2818C112.166 30.4049 112.554 30.4529 112.94 30.423C113.409 30.449 113.877 30.3497 114.295 30.1353C114.713 29.9209 115.067 29.5992 115.32 29.203H115.38V30.203H117.18V25.393C117.18 23.203 115.52 21.933 113.39 21.933L113.35 21.913ZM113.12 28.763C112.51 28.763 111.66 28.453 111.66 27.703C111.66 26.703 112.72 26.363 113.66 26.363C114.254 26.3484 114.841 26.4934 115.36 26.783C115.297 27.3261 115.04 27.828 114.635 28.1958C114.231 28.5635 113.707 28.7722 113.16 28.783L113.12 28.763ZM123.74 22.203L121.6 27.623H121.54L119.32 22.203H117.32L120.65 29.783L118.75 33.993H120.7L125.82 22.203H123.74ZM106.94 30.203H108.8V17.703H106.94V30.203Z" fill="white"/>
<path d="M20.7199 19.623L10.0699 30.923C10.1863 31.3504 10.3993 31.7454 10.6926 32.0774C10.9858 32.4093 11.3515 32.6694 11.7613 32.8376C12.1711 33.0058 12.614 33.0775 13.056 33.0472C13.4979 33.017 13.9269 32.8855 14.3099 32.663L26.3099 25.743L20.7199 19.623Z" fill="#EA4335"/>
<path d="M31.49 17.7031L26.31 14.7031L20.49 19.8931L26.33 25.7431L31.48 22.7431C31.9378 22.4979 32.3205 22.1331 32.5873 21.6876C32.8541 21.242 32.995 20.7324 32.995 20.2131C32.995 19.6938 32.8541 19.1842 32.5873 18.7387C32.3205 18.2931 31.9378 17.9283 31.48 17.6831L31.49 17.7031Z" fill="#FBBC04"/>
<path d="M10.07 9.4834C10.0172 9.7196 9.99366 9.96143 10 10.2034V30.2034C10.0018 30.4533 10.0354 30.702 10.1 30.9434L21.1 19.9434L10.07 9.4834Z" fill="#4285F4"/>
<path d="M20.8 20.2028L26.31 14.6928L14.31 7.75277C13.8592 7.48477 13.3445 7.34315 12.82 7.34277C12.1874 7.34459 11.5728 7.55394 11.0706 7.93871C10.5685 8.32348 10.2064 8.8624 10.04 9.47277L20.8 20.2028Z" fill="#34A853"/>
</svg>
